<svg version="1" xmlns="http://www.w3.org/2000/svg" width="933.333" height="933.333" viewBox="0 0 700.000000 700.000000"><path d="M327.8.5c-.2.1-3.9.5-8.3.9-8.9.7-14.4 1.3-22.5 2.6-3 .5-7.5 1.2-10 1.5-2.4.4-4.7.8-5.1 1-.3.2-2.1.7-4 1-8.9 1.6-34.7 8.4-39.4 10.5-1.1.5-5.1 2-9 3.4-20.1 7.1-46.1 19.8-65 31.7-34.6 21.7-65.5 49.7-91 82.4-23.8 30.4-43.2 66.8-55.9 104.7-3.1 9.4-7.9 26.7-9.1 32.9-.3 1.3-1.1 5.8-2 9.9-2.9 14.7-3.6 20-5.2 37-1.5 16.5-.8 59.2 1.2 71.1.2 1.3.6 4.6.9 7.4.9 7.8 2.3 15.6 5.1 28.5 7 32.5 24.4 75.9 41 102.3 3 4.9 5.5 9 5.5 9.3 0 .3.4 1 1 1.7.5.7 4.6 6.4 9.1 12.6 7.2 10.3 17.9 23.9 23.4 29.7 24.3 26.1 42.9 42.1 68.2 59 7.7 5.2 14.5 9.4 14.9 9.4.4 0 1.5.6 2.3 1.4 2.7 2.3 26 14 39.2 19.6 31.4 13.4 63.4 21.9 96.4 25.6 2.8.3 6.6.8 8.5 1.2 1.9.3 88.7.7 192.8.9l189.2.4-.1-184.3c-.1-101.4-.5-188.1-.9-192.8-1.1-12.3-2-20.5-2.5-23.2-.3-1.3-.8-4.3-1.1-6.8-.9-6.7-7-33.5-9.4-41.2-1.1-3.7-2.1-7-2.1-7.3 0-.2-1.6-4.9-3.5-10.2-22.2-61.5-57.8-112.5-107.4-154.1-6.6-5.6-30.4-23-35.1-25.7-23.5-13.7-50-27.5-52.7-27.5-.4 0-2.6-.8-4.8-1.9-9.6-4.6-39.1-13.6-56.2-17.2-5.4-1.1-10.6-2.2-11.7-2.5-1.1-.2-3.8-.6-6-.9-2.2-.3-5.1-.7-6.5-1-1.3-.2-5.2-.7-8.6-1.1-3.3-.3-7.4-.8-9-1-3.2-.5-54-1.4-54.6-.9z"/></svg>