<svg width="146" height="30" viewBox="0 0 146 30" fill="none" xmlns="http://www.w3.org/2000/svg">
  <path d="M0.00338745 15.0203C0.00338745 12.5398 0.569794 10.572 1.70261 9.11694C2.83542 7.66187 4.36862 6.93433 6.30222 6.93433C8.06979 6.93433 9.47116 7.55444 10.5063 8.79468L10.7114 7.22729H13.8755V29.1707H10.3159V21.7292C9.28073 22.823 7.93307 23.3699 6.27292 23.3699C4.37839 23.3699 2.85983 22.6326 1.71725 21.158C0.574677 19.6736 0.00338745 17.6277 0.00338745 15.0203ZM3.56296 15.3279C3.56296 16.949 3.88034 18.2234 4.51511 19.1511C5.15964 20.0691 6.04831 20.5281 7.18112 20.5281C8.58737 20.5281 9.63229 19.9275 10.3159 18.7263V11.5193C9.63229 10.3669 8.59714 9.79077 7.21042 9.79077C6.07761 9.79077 5.18405 10.2449 4.52975 11.1531C3.88522 12.0613 3.56296 13.4529 3.56296 15.3279Z" fill="#15202A" />
  <path d="M27.3227 21.5242C26.2778 22.7546 24.7934 23.3699 22.8696 23.3699C21.1508 23.3699 19.8471 22.8669 18.9585 21.8611C18.0796 20.8552 17.6401 19.4001 17.6401 17.4958V7.22729H21.1997V17.4519C21.1997 19.4636 22.0346 20.4695 23.7046 20.4695C25.4331 20.4695 26.6001 19.8494 27.2055 18.6091V7.22729H30.7651V23.0769H27.4106L27.3227 21.5242Z" fill="#15202A" />
  <path d="M55.8432 20.5281C56.7319 20.5281 57.4692 20.2693 58.0551 19.7517C58.6411 19.2341 58.9536 18.5945 58.9926 17.8328H62.3471C62.3081 18.8191 62.0005 19.7419 61.4243 20.6013C60.8481 21.4509 60.0669 22.1248 59.0805 22.6228C58.0942 23.1208 57.0298 23.3699 55.8872 23.3699C53.6704 23.3699 51.9126 22.6521 50.6137 21.2166C49.3149 19.781 48.6655 17.7986 48.6655 15.2693V14.9031C48.6655 12.491 49.31 10.5623 50.5991 9.11694C51.8882 7.66187 53.646 6.93433 55.8725 6.93433C57.7573 6.93433 59.2905 7.48608 60.4721 8.5896C61.6635 9.68335 62.2885 11.1238 62.3471 12.9109H58.9926C58.9536 12.0027 58.6411 11.2556 58.0551 10.6697C57.479 10.0837 56.7417 9.79077 55.8432 9.79077C54.6909 9.79077 53.8022 10.2107 53.1772 11.0505C52.5522 11.8806 52.2348 13.1453 52.2251 14.8445V15.4158C52.2251 17.1345 52.5327 18.4187 53.1479 19.2683C53.7729 20.1082 54.6714 20.5281 55.8432 20.5281Z" fill="#15202A" />
  <path d="M70.1841 16.28L68.602 17.906V23.0769H65.0424V0.576904H68.602V13.5554L69.7153 12.1638L74.0952 7.22729H78.3725L72.4839 13.8337L79.0024 23.0769H74.8862L70.1841 16.28Z" fill="#15202A" />
  <path d="M37.918 23.0769H34.3585V7.22729H37.918V23.0769ZM34.1387 3.11108C34.1387 2.56421 34.3096 2.11011 34.6514 1.74878C35.003 1.38745 35.5011 1.20679 36.1456 1.20679C36.7901 1.20679 37.2882 1.38745 37.6397 1.74878C37.9913 2.11011 38.1671 2.56421 38.1671 3.11108C38.1671 3.64819 37.9913 4.09741 37.6397 4.45874C37.2882 4.8103 36.7901 4.98608 36.1456 4.98608C35.5011 4.98608 35.003 4.8103 34.6514 4.45874C34.3096 4.09741 34.1387 3.64819 34.1387 3.11108Z" fill="#43E5B4" />
  <path d="M45.5938 23.0769H42.0343V7.22729H45.5938V23.0769ZM41.8145 3.11108C41.8145 2.56421 41.9854 2.11011 42.3272 1.74878C42.6788 1.38745 43.1768 1.20679 43.8214 1.20679C44.4659 1.20679 44.9639 1.38745 45.3155 1.74878C45.6671 2.11011 45.8428 2.56421 45.8428 3.11108C45.8428 3.64819 45.6671 4.09741 45.3155 4.45874C44.9639 4.8103 44.4659 4.98608 43.8214 4.98608C43.1768 4.98608 42.6788 4.8103 42.3272 4.45874C41.9854 4.09741 41.8145 3.64819 41.8145 3.11108Z" fill="#43E5B4" />
  <path d="M95.8368 21.8904C97.0575 21.8904 98.078 21.5486 98.8984 20.865C99.7284 20.1716 100.178 19.2781 100.246 18.1843H101.931C101.882 19.1511 101.579 20.0349 101.022 20.8357C100.466 21.6267 99.7236 22.2468 98.7958 22.696C97.8779 23.1453 96.8915 23.3699 95.8368 23.3699C93.7568 23.3699 92.1064 22.6472 90.8857 21.2019C89.6747 19.7566 89.0693 17.8132 89.0693 15.3718V14.8445C89.0693 13.282 89.3427 11.9001 89.8896 10.699C90.4364 9.4978 91.2177 8.57007 92.2333 7.91577C93.2587 7.26147 94.455 6.93433 95.8222 6.93433C97.5605 6.93433 98.9911 7.4519 100.114 8.48706C101.247 9.52222 101.852 10.8845 101.931 12.574H100.246C100.168 11.3337 99.7187 10.3328 98.8984 9.57104C98.0878 8.80933 97.0624 8.42847 95.8222 8.42847C94.2402 8.42847 93.0097 8.99976 92.1308 10.1423C91.2616 11.2849 90.8271 12.8865 90.8271 14.947V15.4597C90.8271 17.4812 91.2616 19.0583 92.1308 20.1912C93.0097 21.324 94.245 21.8904 95.8368 21.8904Z" fill="#5E6A77" />
  <path d="M107.189 9.90796C107.766 8.96069 108.503 8.22827 109.401 7.71069C110.3 7.19312 111.281 6.93433 112.346 6.93433C114.045 6.93433 115.309 7.41284 116.14 8.36987C116.97 9.3269 117.39 10.7625 117.399 12.6765V23.0769H115.656V12.6619C115.646 11.2458 115.344 10.1912 114.748 9.4978C114.162 8.80444 113.22 8.45776 111.921 8.45776C110.837 8.45776 109.875 8.79956 109.035 9.48315C108.205 10.157 107.59 11.0701 107.189 12.2224V23.0769H105.446V0.576904H107.189V9.90796Z" fill="#5E6A77" />
  <path d="M131.916 23.0769C131.74 22.5789 131.628 21.8416 131.579 20.865C130.964 21.6658 130.178 22.2859 129.221 22.7253C128.273 23.155 127.268 23.3699 126.203 23.3699C124.68 23.3699 123.444 22.9451 122.497 22.0955C121.559 21.2458 121.091 20.1716 121.091 18.8728C121.091 17.3298 121.73 16.1091 123.01 15.2107C124.299 14.3123 126.091 13.863 128.386 13.863H131.564V12.0613C131.564 10.9285 131.213 10.0398 130.51 9.39526C129.816 8.74097 128.801 8.41382 127.463 8.41382C126.242 8.41382 125.231 8.72632 124.431 9.35132C123.63 9.97632 123.229 10.7283 123.229 11.6072L121.472 11.5925C121.472 10.3328 122.058 9.2439 123.229 8.32593C124.401 7.39819 125.842 6.93433 127.551 6.93433C129.318 6.93433 130.71 7.37866 131.726 8.26733C132.751 9.14624 133.278 10.3767 133.308 11.9587V19.4587C133.308 20.9919 133.469 22.1394 133.791 22.9011V23.0769H131.916ZM126.408 21.8171C127.58 21.8171 128.625 21.5339 129.543 20.9675C130.471 20.4011 131.144 19.6443 131.564 18.697V15.2107H128.43C126.682 15.2302 125.314 15.5525 124.328 16.1775C123.342 16.7927 122.849 17.6423 122.849 18.7263C122.849 19.615 123.176 20.3523 123.83 20.9382C124.494 21.5242 125.353 21.8171 126.408 21.8171Z" fill="#5E6A77" />
  <path d="M140.72 3.16968V7.22729H144.001V8.66284H140.72V19.2244C140.72 20.1033 140.876 20.7576 141.188 21.1873C141.511 21.6169 142.043 21.8318 142.785 21.8318C143.078 21.8318 143.552 21.783 144.206 21.6853L144.279 23.1208C143.82 23.2869 143.195 23.3699 142.404 23.3699C141.203 23.3699 140.329 23.0232 139.782 22.3298C139.235 21.6267 138.962 20.5964 138.962 19.239V8.66284H136.047V7.22729H138.962V3.16968H140.72Z" fill="#5E6A77" />
</svg>
